<svg width="225" height="72" viewBox="0 0 225 72" fill="none" xmlns="http://www.w3.org/2000/svg">
<path fill-rule="evenodd" clip-rule="evenodd" d="M67.4688 16.4185C67.4688 13.4412 69.401 11.3588 72.105 11.3588C73.6934 11.3588 75.1014 12.0679 76.4668 13.4893L76.8768 9.34482C75.4313 8.33436 73.7073 7.79846 71.9437 7.81135C69.6486 7.81135 67.5371 8.7041 65.9689 10.3059C64.4231 11.9088 63.583 14.0584 63.583 16.4633C63.583 19.2771 64.7424 21.7044 66.7866 23.332C68.2497 24.4837 70.0604 25.1049 71.9224 25.094C73.671 25.094 75.3512 24.5899 76.7166 23.649L76.9664 19.3477C75.3512 20.7209 73.7404 21.4087 72.105 21.4087C69.354 21.4087 67.4688 19.3925 67.4688 16.4185ZM90.7753 7.85503H90.5255L82.3217 24.5675H86.185L87.2346 22.2085H93.7571L94.7787 24.5675H98.8L90.7753 7.85503ZM92.5745 19.4149L90.4798 14.3362L88.3437 19.416L92.5745 19.4149ZM111.407 20.0589C111.407 20.9506 110.592 21.6383 109.204 21.6383C107.656 21.6383 106.296 20.9954 104.657 19.9872L104.973 24.3166C106.59 24.8195 108.001 25.094 109.249 25.094C112.906 25.094 115.109 22.8503 115.109 19.8069C115.109 17.2183 113.452 16.0298 111.113 14.7237L109.227 13.6708C108.478 13.2597 108.111 12.7545 108.111 12.2056C108.111 11.4036 108.771 10.9007 109.864 10.9007C110.724 10.9007 112.133 11.3588 113.836 12.4353V8.63577C112.318 8.10706 110.975 7.81135 109.769 7.81135C106.59 7.81135 104.521 9.73574 104.521 12.2762C104.521 14.1961 105.524 15.687 107.633 16.899L108.726 17.5173C108.912 17.6264 109.09 17.729 109.26 17.8268C110.589 18.5915 111.407 19.0628 111.407 20.0589ZM128.131 7.85503H128.38L136.402 24.5675H132.379L131.359 22.2085H124.839L123.789 24.5675H119.926L128.131 7.85503ZM128.084 14.3362L130.178 19.4149L125.95 19.416L128.084 14.3362ZM68.8097 34.9176C68.1649 34.9194 67.5402 34.6937 67.0455 34.2802C66.3398 33.7157 65.9422 32.8431 65.9422 31.8417C65.9422 30.0651 67.1889 28.7535 68.8355 28.7535C69.4325 28.7535 69.9825 28.9316 70.509 29.299L70.4361 30.0248C69.9276 29.5868 69.4168 29.3807 68.8411 29.3807C67.5708 29.3807 66.631 30.4001 66.631 31.8417C66.631 33.2508 67.5462 34.2791 68.8176 34.2791C69.4415 34.2791 69.9993 34.0338 70.5739 33.5476L70.5179 34.3508C70.015 34.7182 69.4314 34.9187 68.8097 34.9187V34.9176ZM75.2692 32.9327C75.2692 31.7812 74.4616 30.978 73.3672 30.978C72.2829 30.978 71.4652 31.7677 71.4652 32.9327C71.4652 34.0842 72.2818 34.8862 73.3672 34.8862C74.4616 34.8862 75.2692 34.0842 75.2692 32.9327ZM73.3583 34.4169C74.0875 34.4169 74.6128 33.8344 74.6128 32.9327C74.6128 32.0321 74.0875 31.4429 73.3583 31.4429C72.638 31.4429 72.1116 32.0187 72.1116 32.9327C72.1116 33.8456 72.638 34.4158 73.3583 34.4158V34.4169ZM77.066 33.3606V31.1349H76.4275V33.4289C76.4275 34.4023 76.8812 34.8974 77.6821 34.8974C78.2141 34.8974 78.7171 34.6308 79.1786 34.0954L79.2178 34.8974L79.7991 34.7294V31.1337H79.1607V32.8812C79.1607 33.8736 78.4729 34.3306 77.8277 34.3306C77.2844 34.3306 77.066 34.0125 77.066 33.3606ZM81.2421 31.1349H81.8783V31.6815C82.3118 31.2446 82.7811 31.0285 83.3233 31.0285V31.6725C82.2513 31.7509 81.8996 32.0971 81.8996 32.9932V34.7294L81.2421 34.7305V31.1349ZM85.6889 34.7966H85.6911V34.7977L85.6889 34.7966ZM84.9429 33.2743C84.9429 34.0509 84.9987 34.4407 85.6889 34.7966H84.7838C84.3021 34.4617 84.2831 34.0461 84.2831 33.3606V31.6513H83.5438V31.1349H84.2831V30.0259L84.944 29.8545V31.1349H85.9387V31.6513H84.9429V33.2743ZM91.4744 28.8027H91.5517L94.2232 34.7294H93.4907L92.8522 33.262H90.137L89.5007 34.7294H88.7928L91.4744 28.8027ZM91.5023 30.1637L92.6056 32.7042H90.39L91.5023 30.1637ZM95.6783 36.292L95.0398 36.4678V31.1349H95.6783V31.313C96.0927 31.1181 96.4848 31.0173 96.8018 31.0173C97.8939 31.0173 98.5839 31.7677 98.5839 32.9215C98.5839 34.0954 97.8446 34.8761 96.6741 34.8761C96.3593 34.8761 96.0379 34.819 95.6772 34.6969L95.6783 36.292ZM97.9353 32.9069C97.9353 33.8064 97.3976 34.3799 96.6046 34.3799C96.3189 34.3799 96.0154 34.3015 95.6782 34.1413V31.8417C96.0736 31.63 96.4007 31.5034 96.7345 31.5034C97.4514 31.5034 97.9353 32.0321 97.9353 32.9069ZM100.397 36.292L99.7589 36.4678V31.1349H100.397V31.313C100.812 31.1181 101.204 31.0173 101.522 31.0173C102.614 31.0173 103.302 31.7677 103.302 32.9215C103.302 34.0954 102.566 34.8761 101.394 34.8761C101.054 34.8726 100.717 34.8121 100.397 34.6969V36.292ZM102.654 32.9069C102.654 33.8064 102.119 34.3799 101.326 34.3799C101.036 34.3799 100.733 34.3015 100.397 34.1413V31.8417C100.793 31.63 101.122 31.5034 101.453 31.5034C102.169 31.5034 102.654 32.0321 102.654 32.9069ZM106.093 30.978C107.188 30.978 107.994 31.7812 107.994 32.9327C107.994 34.0842 107.188 34.8862 106.093 34.8862C105.01 34.8862 104.193 34.0842 104.193 32.9327C104.193 31.7677 105.01 30.978 106.093 30.978ZM107.34 32.9327C107.34 33.8344 106.813 34.4169 106.082 34.4169V34.4158C105.365 34.4158 104.839 33.8456 104.839 32.9327C104.839 32.0187 105.365 31.4429 106.082 31.4429C106.814 31.4429 107.34 32.0321 107.34 32.9327ZM109.531 29.3314C109.797 29.3314 110.013 29.5364 110.013 29.803C110.013 30.0653 109.8 30.278 109.538 30.278C109.276 30.278 109.063 30.0653 109.063 29.803C109.063 29.5364 109.265 29.3303 109.531 29.3303V29.3314ZM109.204 31.1349V34.7305L109.869 34.7294V30.968L109.204 31.1349ZM111.374 31.1349H112.012V31.8585C112.438 31.313 112.961 31.0341 113.492 31.0341C114.289 31.0341 114.743 31.5348 114.743 32.5048V34.7305H114.102V32.5877C114.102 31.9313 113.885 31.6042 113.345 31.6042C112.696 31.6042 112.012 32.059 112.012 33.0503V34.7305H111.374V31.1349ZM117.706 34.7966H117.708V34.7977L117.706 34.7966ZM116.959 33.2743C116.959 34.0509 117.008 34.4407 117.706 34.7966H116.804C116.321 34.4617 116.3 34.0461 116.3 33.3606V31.6513H115.554V31.1349H116.301V30.0259L116.959 29.8545V31.1349H117.955V31.6513H116.959V33.2743ZM121.886 34.3709C121.473 34.704 120.958 34.8858 120.427 34.8862C119.356 34.8862 118.586 34.1245 118.586 33.0447C118.586 31.8092 119.433 30.978 120.524 30.978C121.501 30.978 122.137 31.5908 122.137 32.665C122.137 32.6902 122.136 32.7154 122.135 32.7406C122.134 32.7658 122.133 32.791 122.133 32.8162L122.051 32.9842L119.206 33.0817C119.276 33.9061 119.728 34.362 120.457 34.362C120.93 34.362 121.409 34.1413 121.913 33.7302L121.886 34.3709ZM119.244 32.6269C119.355 31.9078 119.874 31.444 120.497 31.444C121.092 31.444 121.521 31.8585 121.546 32.5373L119.244 32.6269ZM125.994 34.8974L125.953 34.4617C125.55 34.7462 125.156 34.8985 124.722 34.8985C123.724 34.8985 122.998 34.1346 122.998 33.0447C122.998 31.8585 123.861 30.9948 124.995 30.9948C125.324 30.9948 125.63 31.0777 125.902 31.2346V29.0413L126.544 28.8733V34.7305L125.994 34.8974ZM124.989 31.5258C125.308 31.5338 125.621 31.6155 125.903 31.7644V33.9128C125.56 34.2343 125.177 34.4023 124.792 34.4023C124.164 34.4023 123.659 33.868 123.659 32.9988C123.659 32.0971 124.189 31.5258 124.989 31.5258ZM132.189 34.2903C132.929 34.2903 133.393 33.868 133.393 33.271C133.393 32.6773 132.979 32.3648 132.258 32.0388L131.866 31.8596C131.019 31.4754 130.582 30.9276 130.582 30.232C130.582 29.3874 131.256 28.7635 132.251 28.7635C132.761 28.7635 133.244 28.9271 133.619 29.1567V29.8882C133.125 29.523 132.671 29.3393 132.213 29.3393C131.599 29.3393 131.215 29.7056 131.215 30.2052C131.215 30.6891 131.57 31.0173 132.29 31.3365L132.692 31.5124C133.587 31.9078 134.052 32.5261 134.052 33.271C134.052 34.2231 133.313 34.9198 132.213 34.9198C131.709 34.9198 131.157 34.7798 130.577 34.4796L130.527 33.6787C131.157 34.0629 131.668 34.2903 132.189 34.2903ZM135.391 36.4678L136.026 36.292V34.6969C136.387 34.819 136.706 34.8761 137.025 34.8761C138.19 34.8761 138.931 34.0954 138.931 32.9215C138.931 31.7677 138.239 31.0173 137.146 31.0173C136.832 31.0173 136.434 31.1181 136.026 31.313V31.1349H135.391V36.4678ZM136.947 34.3799C137.747 34.3799 138.279 33.8064 138.279 32.9069C138.279 32.0321 137.795 31.5034 137.074 31.5034C136.753 31.5034 136.415 31.63 136.026 31.8417V34.1413C136.355 34.3015 136.662 34.3799 136.947 34.3799ZM141.677 34.8851C142.192 34.8851 142.695 34.7182 143.135 34.3698L143.162 33.7302C142.654 34.1413 142.18 34.362 141.706 34.362C140.973 34.362 140.522 33.9061 140.455 33.0817L143.301 32.9842L143.379 32.8162L143.381 32.665C143.381 31.5908 142.743 30.978 141.775 30.978C140.683 30.978 139.835 31.8092 139.835 33.0447C139.835 34.1234 140.605 34.8851 141.677 34.8851ZM141.746 31.444C141.125 31.444 140.605 31.9078 140.495 32.6269L142.79 32.5373C142.77 31.8585 142.337 31.444 141.746 31.444ZM144.257 32.9708C144.257 34.0954 145.025 34.8862 146.141 34.8862H146.142C146.609 34.8844 147.066 34.7533 147.464 34.5076L147.554 33.8064C147.086 34.1727 146.644 34.3519 146.207 34.3519C145.427 34.3519 144.899 33.8165 144.899 32.9092C144.899 32.0478 145.427 31.5034 146.247 31.5034C146.631 31.5034 147.013 31.6266 147.438 31.8585L147.516 31.2861C147.086 31.0777 146.681 30.968 146.239 30.968C145.025 30.968 144.257 31.7644 144.257 32.9708ZM149.015 29.3303C149.278 29.3306 149.491 29.5436 149.491 29.8064C149.491 30.0693 149.278 30.2824 149.015 30.2824C148.89 30.281 148.771 30.2294 148.684 30.1393C148.597 30.0492 148.55 29.9281 148.553 29.803C148.553 29.5366 148.75 29.3306 149.015 29.3303ZM148.691 31.1337V34.7294H149.351V30.968L148.691 31.1337ZM153.606 34.8974C153.57 34.8146 153.551 34.7229 153.532 34.6282L153.532 34.6281C153.524 34.5883 153.516 34.548 153.507 34.5076C153.087 34.7585 152.684 34.8862 152.286 34.8862C151.278 34.8862 150.553 34.1245 150.553 32.9831C150.553 31.8103 151.301 31.0285 152.463 31.0285C152.779 31.0285 153.103 31.0845 153.458 31.2066L154.097 31.1349V33.9341C154.097 34.213 154.135 34.4695 154.179 34.7294L153.606 34.8974ZM152.544 31.5258C152.863 31.5344 153.176 31.616 153.458 31.7644V34.0629C153.075 34.2746 152.748 34.4023 152.414 34.4023C151.693 34.4023 151.211 33.8725 151.211 32.9988C151.211 32.0971 151.742 31.5258 152.544 31.5258ZM155.616 34.7294V29.0413L156.27 28.8733V34.7305L155.616 34.7294ZM162.488 28.8027H162.403L159.723 34.7294H160.435L161.075 33.262H163.783L164.423 34.7294H165.163L162.488 28.8027ZM163.537 32.7042L162.442 30.1637L161.317 32.7042H163.537ZM168.78 34.4617L168.82 34.8974L169.373 34.7305V28.8733L168.731 29.0413V31.2346C168.446 31.0777 168.151 30.9948 167.815 30.9948C166.683 30.9948 165.825 31.8585 165.825 33.0447C165.825 34.1346 166.544 34.8985 167.538 34.8985C167.979 34.8985 168.376 34.7462 168.78 34.4617ZM168.73 31.7644C168.444 31.6161 168.127 31.5345 167.804 31.5258C167.018 31.5258 166.48 32.0971 166.48 32.9988C166.48 33.868 166.98 34.4023 167.616 34.4023C168.002 34.4023 168.386 34.2343 168.731 33.9128L168.73 31.7644ZM170.981 31.1349H170.276L171.903 34.8985H172.039L173.753 31.1349H173.207L172.052 33.7157L170.981 31.1349ZM176.24 30.978C177.328 30.978 178.138 31.7812 178.138 32.9327C178.138 34.0842 177.328 34.8862 176.24 34.8862C175.15 34.8862 174.335 34.0842 174.335 32.9327C174.335 31.7677 175.15 30.978 176.239 30.978H176.24ZM177.479 32.9327C177.479 33.8344 176.957 34.4169 176.229 34.4169V34.4158C175.509 34.4158 174.978 33.8456 174.978 32.9327C174.978 32.0187 175.509 31.4429 176.229 31.4429C176.958 31.4429 177.479 32.0321 177.479 32.9327ZM180.92 34.8862C179.814 34.8862 179.046 34.0954 179.046 32.9708C179.046 31.7644 179.814 30.968 181.024 30.968C181.461 30.968 181.867 31.0777 182.306 31.2861L182.228 31.8585C181.803 31.6266 181.414 31.5034 181.036 31.5034C180.218 31.5034 179.686 32.0478 179.686 32.9092C179.686 33.8165 180.218 34.3519 180.997 34.3519C181.423 34.3519 181.867 34.1727 182.334 33.8064L182.247 34.5076C181.833 34.7585 181.379 34.8862 180.92 34.8862ZM186.119 34.5076C186.137 34.6408 186.17 34.7715 186.217 34.8974L186.782 34.7294C186.738 34.4695 186.711 34.213 186.711 33.9341V31.1349L186.069 31.2066C185.714 31.0845 185.39 31.0285 185.075 31.0285C183.91 31.0285 183.162 31.8103 183.162 32.9831C183.162 34.1245 183.882 34.8862 184.897 34.8862C185.29 34.8862 185.688 34.7585 186.119 34.5076ZM186.069 31.7644C185.784 31.6163 185.469 31.5348 185.147 31.5258C184.355 31.5258 183.82 32.0971 183.82 32.9988C183.82 33.8725 184.307 34.4023 185.024 34.4023C185.36 34.4023 185.68 34.2746 186.069 34.0629V31.7644ZM189.76 34.7966H189.762V34.7977L189.76 34.7966ZM189.005 33.2743C189.005 34.0509 189.062 34.4407 189.76 34.7966H188.855C188.369 34.4617 188.354 34.0461 188.354 33.3606V31.6513H187.607V31.1349H188.354V30.0259L189.005 29.8545V31.1349H190.002V31.6513H189.005V33.2743ZM193.94 34.3709C193.489 34.7182 192.989 34.8862 192.484 34.8862C191.403 34.8862 190.634 34.1245 190.634 33.0447C190.634 31.8092 191.487 30.978 192.578 30.978C193.545 30.978 194.187 31.5908 194.187 32.665C194.187 32.6902 194.185 32.7154 194.183 32.7406C194.181 32.7658 194.179 32.791 194.179 32.8162L194.107 32.9842L191.261 33.0817C191.328 33.9061 191.776 34.362 192.514 34.362C192.985 34.362 193.457 34.1413 193.969 33.7302L193.94 34.3709ZM191.301 32.6269C191.403 31.9078 191.932 31.444 192.544 31.444C193.144 31.444 193.574 31.8585 193.596 32.5373L191.301 32.6269ZM196.439 34.3698C196.837 34.3698 197.084 34.1525 197.084 33.868C197.084 33.52 196.852 33.4197 196.467 33.254L196.406 33.2273L196.07 33.0895C195.457 32.8319 195.153 32.5866 195.153 32.0377C195.153 31.3847 195.579 30.968 196.285 30.968C196.707 30.968 197.104 31.0957 197.525 31.3455L197.393 31.9022C196.979 31.6031 196.616 31.4507 196.3 31.4507C195.952 31.4507 195.743 31.6524 195.743 31.9212C195.743 32.2572 195.952 32.3581 196.453 32.5429L196.738 32.665C197.401 32.9226 197.711 33.2385 197.711 33.7762C197.711 34.4617 197.223 34.8974 196.434 34.8974C195.945 34.8974 195.468 34.7361 195.073 34.4292L195.153 33.8243C195.635 34.1872 196.074 34.3698 196.439 34.3698ZM69.5431 41.2867H66.2634V46.5961H67.5157V44.4959H69.3269V43.4239H67.5157V42.3654H69.5431V41.2867ZM72.3279 41.9184C72.8211 41.4012 73.5052 41.1096 74.2198 41.1119C74.9356 41.1119 75.6144 41.3953 76.1297 41.9207C76.6449 42.4483 76.9138 43.1517 76.9138 43.9403C76.9138 44.6012 76.7256 45.1948 76.3604 45.6821C75.8594 46.3634 75.0655 46.7672 74.2198 46.7709C73.5141 46.7709 72.8353 46.4886 72.3279 45.9644C71.8044 45.4221 71.5179 44.6939 71.5315 43.9403C71.5315 43.1517 71.8059 42.4539 72.3279 41.9184ZM75.6145 43.9403C75.6145 44.8857 74.995 45.5712 74.2199 45.5712C73.4481 45.5712 72.8276 44.8812 72.8276 43.9403C72.8276 42.9994 73.4481 42.3049 74.2199 42.3049C74.995 42.3049 75.6145 42.9882 75.6145 43.9403ZM79.2793 41.2867H80.6358C81.3079 41.2867 81.8277 41.3315 82.2824 41.6586C82.6767 41.9442 82.8985 42.3867 82.8985 42.8459C82.8985 43.5113 82.5569 44.0333 81.9139 44.3178L83.5269 46.5961H82.0875L80.6795 44.5127H80.5025V46.5961H79.2793V41.2867ZM80.5027 43.7252V42.2567H80.7121C81.4055 42.2567 81.7449 42.4427 81.7449 42.977C81.7449 43.4564 81.41 43.7252 80.7648 43.7252H80.5027ZM91.6246 42.269C90.7352 42.269 90.1046 42.9557 90.1046 43.9268C90.1046 44.9047 90.7251 45.5622 91.6246 45.5622C92.16 45.5622 92.6865 45.3382 93.2152 44.8857L93.1379 46.3015C92.6718 46.6124 92.1232 46.7762 91.563 46.772C90.9537 46.7738 90.3615 46.5706 89.8817 46.1951C89.2096 45.6608 88.8332 44.8644 88.8332 43.9403C88.8332 43.1517 89.102 42.4483 89.6117 41.9207C90.127 41.3953 90.8214 41.1019 91.5719 41.1019C92.16 41.1019 92.6966 41.2699 93.1872 41.607L93.055 42.9658C92.6092 42.4976 92.1443 42.269 91.6246 42.269ZM96.7715 41.2867H95.5281V46.5961H96.7704V44.3727H98.8034V46.5961H100.045V41.2867H98.8034V43.2391H96.7715V41.2867ZM102.764 41.2867H104.021V46.5961H102.764V41.2867ZM108.001 41.2867H106.739V46.5961H110.054V45.4581H108.001V41.2867ZM112.162 41.2867H113.566C115.598 41.2867 116.719 42.3519 116.719 43.9414C116.719 44.9294 116.269 45.7045 115.408 46.2041C114.855 46.5222 114.274 46.5961 113.566 46.5961H112.162V41.2867ZM115.443 43.9403C115.443 44.8644 114.815 45.4581 113.686 45.4581L113.407 45.4592V42.4203H113.684C114.815 42.4203 115.443 43.0195 115.443 43.9403ZM119.085 41.2867H120.442C121.115 41.2867 121.634 41.3315 122.089 41.6586C122.481 41.9442 122.706 42.3867 122.706 42.8459C122.706 43.5113 122.361 44.0333 121.721 44.3178L123.333 46.5961H121.894L120.486 44.5127H120.307V46.5961H119.084L119.085 41.2867ZM120.306 43.7252V42.2567H120.519C121.211 42.2567 121.549 42.4427 121.549 42.977C121.549 43.4564 121.213 43.7252 120.575 43.7252H120.306ZM125.322 41.2867H128.57V42.3777H126.543V43.341H128.28V44.4275H126.544V45.4827H128.598V46.5961H125.322V41.2867ZM131.171 41.1119H131.052V46.5961H132.212V43.7006L135.505 46.8056H135.617V41.2867H134.453V44.2102L131.171 41.1119ZM70.3453 61.037C70.1398 60.8197 69.9013 60.6363 69.6385 60.4937C69.4025 60.3822 69.1444 60.3255 68.8835 60.3279C68.4265 60.3279 68.0546 60.4847 67.7633 60.8028C67.4721 61.121 67.3276 61.5253 67.3276 62.0227C67.3276 62.5167 67.471 62.921 67.76 63.2358C68.0467 63.5416 68.4231 63.695 68.8835 63.695C69.1568 63.695 69.429 63.6357 69.7012 63.5181C69.9968 63.3886 70.271 63.2148 70.5144 63.0028L70.4315 64.4534C70.1978 64.6077 69.9432 64.7277 69.6754 64.8096C69.401 64.8846 69.1153 64.9317 68.8208 64.9317C68.5089 64.9336 68.1991 64.8805 67.9056 64.7749C67.6146 64.6765 67.3421 64.5304 67.0991 64.3425C66.7599 64.0728 66.4874 63.7286 66.3027 63.3366C66.116 62.927 66.0208 62.4817 66.0238 62.0316C66.0238 61.6373 66.0932 61.2565 66.2276 60.9093C66.3654 60.5475 66.5637 60.2372 66.8247 59.965C67.0879 59.6928 67.3915 59.4889 67.7376 59.35C68.0826 59.2111 68.4455 59.1327 68.8275 59.1327C69.1299 59.1327 69.4211 59.1708 69.6945 59.2671C69.97 59.3455 70.2321 59.48 70.4842 59.6413L70.3453 61.037ZM75.0622 59.1518L72.3111 64.7558H73.6049L73.9555 63.9672H76.1443L76.4859 64.7558H77.8357L75.1451 59.1518H75.0622ZM74.3285 63.0263H75.7466L75.0488 61.3282L74.3285 63.0263ZM80.6438 63.6525C80.4142 63.5606 80.1319 63.4217 79.7981 63.219L79.9045 64.6684C80.1924 64.7603 80.4501 64.8275 80.6853 64.8723C80.9205 64.9115 81.1412 64.9317 81.3394 64.9317C81.9365 64.9317 82.4103 64.7737 82.7699 64.4444C83.1272 64.1162 83.3064 63.6872 83.3064 63.1563C83.3064 62.8146 83.2134 62.5178 83.0353 62.2714C82.846 62.0227 82.4943 61.7516 81.9634 61.4458L81.3305 61.0986C81.2106 61.0269 81.1121 60.963 81.0538 60.8689C80.9911 60.7961 80.9575 60.6976 80.9575 60.6046C80.956 60.4786 81.0136 60.3592 81.1132 60.282C81.2173 60.2125 81.3641 60.1677 81.5433 60.1677C81.7091 60.1677 81.904 60.2181 82.1437 60.3044C82.4026 60.407 82.65 60.5366 82.8819 60.6908V59.4139C82.6097 59.3209 82.3599 59.2492 82.1392 59.2044C81.9118 59.1618 81.7057 59.1327 81.5153 59.1327C80.9978 59.1327 80.5721 59.2671 80.2473 59.5517C79.918 59.8362 79.7522 60.1901 79.7522 60.6337C79.7494 60.9392 79.8384 61.2385 80.0076 61.4929C80.1835 61.7561 80.4456 61.9745 80.7962 62.1795L81.1647 62.3912C81.2275 62.4227 81.2881 62.4582 81.3462 62.4976C81.8278 62.7642 82.0631 63.0263 82.0631 63.2392C82.0679 63.3928 81.9918 63.5378 81.8625 63.6211C81.7025 63.7257 81.5136 63.777 81.3226 63.7679C81.0918 63.7646 80.8628 63.7257 80.6438 63.6525ZM84.9252 64.7558L87.6762 59.1518H87.7591L90.4519 64.7558H89.0988L88.7605 63.9672H86.5706L86.2167 64.7558H84.9252ZM88.3594 63.0263H86.9413L87.6627 61.3282L88.3594 63.0263ZM95.7726 62.0316C95.7661 61.26 96.0592 60.5159 96.5903 59.956C96.8389 59.6917 97.1358 59.4912 97.4673 59.3545C98.1431 59.0728 98.9036 59.0736 99.5788 59.3568C99.9148 59.4945 100.215 59.6973 100.475 59.965C100.738 60.2338 100.933 60.5407 101.073 60.9025C101.207 61.2464 101.277 61.6306 101.277 62.0316C101.285 62.6739 101.087 63.3018 100.711 63.8227C100.197 64.5169 99.3862 64.928 98.5225 64.9317C98.1585 64.9317 97.8123 64.8611 97.4752 64.7222C97.142 64.5745 96.8413 64.3625 96.5903 64.0983C96.3214 63.8227 96.1187 63.5046 95.9798 63.1641C95.8375 62.8041 95.7671 62.4198 95.7726 62.0328V62.0316ZM97.5063 63.2268C97.2353 62.9077 97.0942 62.5024 97.094 62.0322C97.0942 61.5542 97.2353 61.1645 97.5063 60.8454C97.7785 60.5262 98.1246 60.366 98.5222 60.366C98.9178 60.3616 99.2938 60.5377 99.5438 60.8443C99.8137 61.1647 99.9493 61.5545 99.9493 62.0316C99.9493 62.5055 99.8126 62.9109 99.5438 63.2291C99.2671 63.5472 98.9255 63.7062 98.5222 63.7062C98.1246 63.7062 97.7785 63.5461 97.5063 63.2268ZM103.703 64.7558V59.3209H107.058V60.4287H104.977V61.5041H106.836V62.6029H104.977V64.7558H103.703ZM114.252 60.4489V64.7558L115.536 64.7547V60.4489H117.251V59.3198H112.535V60.4489H114.252ZM119.387 64.7558V59.3209H120.783C121.22 59.3209 121.571 59.3467 121.811 59.4049C122.044 59.4633 122.265 59.5606 122.465 59.6928C122.665 59.8496 122.819 60.0199 122.932 60.2349C123.043 60.4489 123.099 60.6796 123.099 60.9093C123.099 61.2587 123.003 61.5511 122.836 61.811C122.655 62.0831 122.396 62.2946 122.093 62.4181L123.731 64.7558H122.26L120.826 62.6175H120.635V64.7569L119.387 64.7558ZM120.635 60.3089H120.849C121.225 60.3089 121.499 60.3682 121.668 60.4847C121.835 60.5911 121.913 60.7894 121.913 61.047C121.913 61.2879 121.834 61.4895 121.659 61.6127C121.482 61.7561 121.239 61.8099 120.911 61.8099H120.635V60.3089ZM124.933 64.7558L127.674 59.1518H127.764L130.456 64.7558H129.1L128.765 63.9672H126.57L126.222 64.7558H124.933ZM128.359 63.0263H126.94L127.668 61.3282L128.359 63.0263ZM133.725 64.963H133.642L131.09 59.3209H132.457L133.725 62.2859L135.017 59.3209H136.279L133.725 64.963ZM138.247 59.3209V64.7558H139.544V59.3209H138.247ZM142.073 63.219C142.407 63.4217 142.697 63.5606 142.918 63.6525C143.156 63.7275 143.388 63.7679 143.6 63.7679C143.824 63.7679 144.01 63.7163 144.138 63.6211C144.27 63.5406 144.347 63.3939 144.339 63.2392C144.339 63.0263 144.105 62.7642 143.62 62.4976C143.564 62.456 143.504 62.4204 143.441 62.3912L143.075 62.1795C142.721 61.9745 142.456 61.7561 142.284 61.4929C142.117 61.2373 142.028 60.9389 142.026 60.6337C142.026 60.1901 142.193 59.8362 142.525 59.5517C142.857 59.2671 143.28 59.1327 143.797 59.1327C143.981 59.1327 144.188 59.1618 144.415 59.2044C144.643 59.2492 144.886 59.3209 145.163 59.4139V60.6908C144.93 60.5358 144.681 60.4062 144.42 60.3044C144.178 60.2181 143.984 60.1677 143.818 60.1677C143.667 60.1638 143.518 60.2035 143.389 60.282C143.3 60.3499 143.244 60.452 143.233 60.5634C143.223 60.6749 143.26 60.7857 143.335 60.8689C143.39 60.9619 143.49 61.0253 143.601 61.0959L143.606 61.0986L144.24 61.4458C144.769 61.7516 145.125 62.0227 145.31 62.2714C145.49 62.5178 145.588 62.8146 145.588 63.1563C145.588 63.6872 145.401 64.1162 145.045 64.4444C144.691 64.7737 144.214 64.9317 143.616 64.9317C143.399 64.9298 143.183 64.91 142.969 64.8723C142.702 64.8212 142.438 64.7531 142.179 64.6684L142.073 63.219ZM155.058 60.4937C155.319 60.6374 155.556 60.8206 155.761 61.037L155.898 59.6413C155.645 59.48 155.382 59.3455 155.111 59.2671C154.838 59.1708 154.542 59.1327 154.244 59.1327C153.856 59.1327 153.493 59.2111 153.157 59.35C152.809 59.4849 152.496 59.6948 152.239 59.965C151.979 60.2372 151.784 60.5475 151.64 60.9093C151.507 61.2565 151.434 61.6374 151.434 62.0316C151.435 62.4817 151.531 62.9265 151.717 63.3366C151.903 63.7288 152.178 64.073 152.519 64.3425C152.759 64.5326 153.032 64.6789 153.323 64.7749C153.614 64.8802 153.914 64.9317 154.234 64.9317C154.524 64.9295 154.812 64.8884 155.092 64.8096C155.369 64.7222 155.619 64.6102 155.847 64.4534L155.931 63.0028C155.66 63.2392 155.384 63.3993 155.111 63.5181C154.847 63.6357 154.576 63.695 154.301 63.695C153.843 63.695 153.465 63.5416 153.169 63.2358C152.891 62.921 152.745 62.5167 152.745 62.0227C152.745 61.5253 152.892 61.121 153.174 60.8028C153.475 60.4847 153.847 60.3279 154.3 60.3279C154.562 60.3261 154.821 60.3828 155.058 60.4937ZM157.952 62.0316C157.952 61.6374 158.025 61.2565 158.158 60.9093C158.304 60.5508 158.506 60.2372 158.774 59.956C159.024 59.6917 159.315 59.4912 159.653 59.3545C160.328 59.0705 161.089 59.0714 161.763 59.3568C162.101 59.4945 162.401 59.6973 162.659 59.965C162.922 60.2338 163.118 60.5407 163.257 60.9025C163.392 61.2464 163.464 61.6306 163.464 62.0316C163.464 62.3789 163.414 62.7015 163.313 62.995C163.22 63.2929 163.087 63.5662 162.893 63.8227C162.381 64.5164 161.571 64.9275 160.709 64.9317C160.345 64.9317 159.998 64.8611 159.662 64.7222C159.327 64.5757 159.026 64.3635 158.776 64.0983C158.514 63.8279 158.305 63.5111 158.16 63.1641C158.021 62.8032 157.95 62.4195 157.952 62.0328V62.0316ZM159.689 63.2268C159.421 62.9077 159.28 62.5024 159.28 62.0322C159.28 61.5542 159.42 61.1645 159.689 60.8454C159.966 60.5262 160.31 60.366 160.708 60.366C161.103 60.3624 161.479 60.5383 161.729 60.8443C161.996 61.1647 162.136 61.5545 162.136 62.0316C162.136 62.5055 161.996 62.9109 161.729 63.2291C161.454 63.5472 161.108 63.7062 160.708 63.7062C160.31 63.7062 159.966 63.5461 159.689 63.2268ZM167.1 59.3209V62.3038C167.1 62.7855 167.196 63.1406 167.364 63.3904C167.543 63.6178 167.808 63.7421 168.159 63.7421C168.51 63.7421 168.771 63.6301 168.943 63.4027C169.129 63.1865 169.214 62.8695 169.214 62.4461V59.3209H170.362V62.4461C170.362 63.2268 170.166 63.8306 169.773 64.2742C169.363 64.7166 168.815 64.9317 168.1 64.9317C167.386 64.9317 166.83 64.7189 166.428 64.282C166.036 63.8418 165.831 63.2392 165.831 62.4461V59.3209H167.1ZM173.08 59.1417V64.7558H174.259V61.7897L177.635 64.963H177.75V59.3209H176.558V62.3139L173.194 59.1417H173.08ZM181.604 64.7558V60.4489H179.888V59.3198H184.602V60.4489H182.895V64.7547L181.604 64.7558ZM187.79 62.1795V64.7558H189.07V62.128L191.156 59.3209H189.79L188.544 61.037L187.415 59.3209H185.858L187.79 62.1795ZM191.342 65.9129L192.059 63.8138H193.112L192.278 65.9129H191.342ZM199.46 59.3209V64.7558H200.741V59.3209H199.46ZM203.526 64.7558V59.1417H203.651L207.011 62.3139V59.3209H208.201V64.963H208.089L204.719 61.7897V64.7558H203.526ZM214.237 60.4937C214.501 60.6362 214.741 60.8196 214.947 61.037L215.086 59.6413C214.831 59.48 214.57 59.3455 214.295 59.2671C214.024 59.1708 213.728 59.1327 213.428 59.1327C213.043 59.1327 212.681 59.2111 212.342 59.35C211.991 59.4889 211.689 59.6928 211.425 59.965C211.164 60.2372 210.971 60.5475 210.831 60.9093C210.693 61.2565 210.625 61.6374 210.625 62.0316C210.622 62.4816 210.717 62.9268 210.902 63.3366C211.089 63.7287 211.364 64.0727 211.704 64.3425C211.945 64.5318 212.216 64.678 212.506 64.7749C212.8 64.8802 213.101 64.9317 213.42 64.9317C213.71 64.9293 213.998 64.8883 214.277 64.8096C214.552 64.7222 214.804 64.6102 215.033 64.4534L215.117 63.0028C214.844 63.2392 214.571 63.3993 214.301 63.5181C214.029 63.6357 213.76 63.695 213.486 63.695C213.024 63.695 212.651 63.5416 212.359 63.2358C212.075 62.921 211.928 62.5167 211.928 62.0227C211.928 61.5253 212.075 61.121 212.362 60.8028C212.658 60.4847 213.028 60.3279 213.486 60.3279C213.746 60.3255 214.003 60.3822 214.237 60.4937ZM217.334 64.2092C217.334 64.0333 217.393 63.8765 217.514 63.7645C217.628 63.6377 217.791 63.5667 217.962 63.5696C218.138 63.5696 218.287 63.6346 218.41 63.7623C218.54 63.8743 218.598 64.0333 218.598 64.2092C218.598 64.3884 218.539 64.5363 218.408 64.6684C218.287 64.783 218.128 64.8471 217.962 64.8477C217.795 64.8459 217.635 64.7797 217.516 64.6628C217.399 64.541 217.334 64.3783 217.334 64.2092ZM67.3948 56.3181V57.7027H197.331V56.3181H67.3948Z" fill="#007FD2"/>
<path fill-rule="evenodd" clip-rule="evenodd" d="M8.67289 30.4214L8.67564 30.425H8.67492L8.67289 30.4214ZM8.67289 30.4214C6.93673 28.1647 5.57628 25.8906 4.72683 23.7301C2.03294 16.8839 2.24886 12.0373 4.58482 9.04113C6.91788 6.04719 11.5297 4.19235 15.7799 5.76133C18.7728 6.8658 21.0215 9.26993 22.6345 10.9945L22.6345 10.9945C23.3129 11.7198 23.8789 12.3249 24.3405 12.6625C25.8997 13.806 28.1465 14.4269 31.7555 10.3684C35.2203 6.46766 39.8923 3.02285 44.9931 2.77968C49.6737 2.55751 53.9029 5.90462 55.0354 10.1824C55.8223 13.151 55.2426 18.1098 53.6776 22.6322C54.1877 19.7425 54.2123 16.9968 53.6493 15.1455C52.4872 11.336 48.5195 8.62428 44.2207 8.78712C39.2184 8.976 35.3566 12.3911 32.2852 15.9995C29.0877 19.7555 27.0075 19.2627 25.5439 18.2813C25.1108 17.9914 24.5745 17.4642 23.9317 16.8324C22.4022 15.329 20.2698 13.2331 17.4905 12.3296C13.5439 11.0436 9.36469 12.8485 7.30769 15.6065C5.24923 18.3696 5.19054 22.7335 7.85617 28.809C8.10296 29.359 8.3755 29.897 8.67289 30.4214ZM31.7644 28.5376C32.1875 31.4056 30.8225 33.9842 28.7198 34.2983C26.6164 34.6138 24.5681 32.5397 24.145 29.6731C23.7233 26.8058 25.0862 24.2272 27.1896 23.9124C29.2929 23.5969 31.3412 25.6703 31.7644 28.5376ZM34.6277 44.548C34.6277 44.548 40.1561 54.674 45.3996 66.0831C43.8382 66.9371 41.8559 66.5101 39.7293 63.0863C37.6042 59.6654 35.195 55.8146 32.9279 53.3902C30.6601 50.9658 27.401 50.5381 25.2766 52.3915C23.6067 53.8458 21.1671 56.5404 19.4977 58.3841L19.4976 58.3843L19.4967 58.3852L19.4967 58.3853C19.0399 58.8898 18.6409 59.3305 18.3311 59.6647C16.911 61.1953 14.7192 60.4463 16.1719 57.5174C17.2935 55.2559 23.9993 43.5508 23.9993 43.5508C18.6303 40.5011 13.6389 36.3319 9.94801 31.9904C11.3638 30.8455 13.1846 30.543 15.0742 31.732C15.8442 32.2168 16.8258 32.9701 17.9147 33.8058L17.9147 33.8058L17.9148 33.8058C19.9697 35.3828 22.407 37.2533 24.5267 38.1672C27.7691 39.5639 31.4752 39.5509 35.9232 37.4999C40.372 35.4468 43.1543 32.0114 45.2837 28.7496C47.2523 25.734 49.4608 23.5245 53.0712 24.2265C52.493 25.6356 51.825 26.973 51.0664 28.149C47.6668 33.4269 42.5652 40.1284 34.6277 44.548ZM40.6963 43.1433C41.8636 43.1433 42.7932 44.0986 42.7932 45.2927C42.7932 46.5049 41.8636 47.4501 40.6869 47.4501C39.5204 47.4501 38.5712 46.5049 38.5712 45.292C38.5712 44.0979 39.5204 43.1433 40.6869 43.1433H40.6963ZM38.9793 45.292C38.9793 44.2897 39.7473 43.4777 40.687 43.4777L40.6965 43.4784C41.6449 43.4784 42.405 44.2897 42.405 45.3021C42.405 46.3146 41.6456 47.1251 40.6965 47.1157C39.7473 47.1157 38.9793 46.3146 38.9793 45.292ZM40.2887 46.5433H39.9091V44.1464C40.1083 44.1167 40.2974 44.0892 40.5829 44.0892C40.9437 44.0892 41.1799 44.1652 41.3234 44.2701C41.4654 44.3751 41.5415 44.5379 41.5415 44.7666C41.5415 45.0814 41.3321 45.2724 41.077 45.3499V45.3687C41.285 45.4063 41.4277 45.5974 41.4755 45.9506C41.5321 46.324 41.5886 46.4665 41.627 46.5433H41.2285C41.1705 46.4665 41.114 46.2473 41.0669 45.9317C41.0104 45.6263 40.8582 45.512 40.5546 45.512H40.2887V46.5433ZM40.5638 45.216H40.2884V44.404C40.3544 44.3946 40.4399 44.3845 40.5638 44.3845C40.9912 44.3845 41.1434 44.5951 41.1434 44.8049C41.1434 45.1016 40.8768 45.216 40.5638 45.216Z" fill="#007FD2"/>
</svg>
